<svg width="144" height="126" viewBox="0 0 144 126" fill="none" xmlns="http://www.w3.org/2000/svg">
<path d="M43.1472 27.2138C43.1472 27.2138 52.252 -7.83363 73.8046 1.61775C80.104 5.75483 81.4647 18.3174 80.5744 20.3355C83.195 14.4326 93.0893 11.7418 98.868 10.8C106.058 9.63964 113.668 12.734 115.398 20.386C117.178 28.3238 113.164 37.5229 108.393 43.7621C109.098 42.8372 120.37 51.6663 121.109 52.339C128.719 59.1837 135.942 73.5626 128.081 82.9298C123.965 87.8405 116.372 88.3955 110.56 86.6465C110.56 86.6465 126.535 130.859 84.8076 111.671C84.8076 111.671 65.4557 141.875 55.6789 112.983C56.2164 114.563 41.8537 120.399 40.5266 120.769C24.8871 125.024 23.9296 102.959 31.237 94.1807C29.8595 95.8288 21.2082 92.2299 19.9147 91.5067C8.25651 85.0825 10.9107 66.5833 17.8989 57.5188C17.8989 57.5188 10.4739 37.7583 15.2615 26.8438C20.0491 15.9294 30.8002 14.6176 43.1472 27.2138Z" fill="#62ABFF"/>
<path d="M96.0627 86.3432C95.7603 82.9797 94.702 80.0703 92.1822 77.8504C89.3769 85.4182 83.5646 89.1517 75.7532 90.7493C77.1307 87.9072 77.9203 85.1997 77.3827 82.1726C72.3431 86.0742 66.6988 87.9408 60.2146 87.6045C61.2561 86.4441 62.3144 85.5025 63.1879 84.3925C65.0525 81.9876 66.514 79.3977 66.9004 76.3202C67.1356 74.4702 66.6988 72.8052 65.2877 71.5439C63.0367 69.5258 60.3154 68.6681 57.342 68.8531C55.259 68.9876 54.2847 69.795 53.2767 71.8636C52.084 70.5854 51.4625 69.0717 51.2105 67.4236C50.169 60.6798 54.4862 54.7265 61.2393 53.5492C61.5752 53.4988 61.9112 53.482 62.18 53.1793C65.0022 50.068 68.6306 48.2686 72.5615 47.0914C79.8521 44.8883 86.7563 45.931 93.2238 49.8999C93.4085 50.0176 93.5765 50.1521 93.7613 50.2867C93.7949 50.3203 93.8117 50.3877 93.8621 50.4718C93.3917 50.5391 92.9382 50.6232 92.4846 50.6736C92.0647 50.7241 91.6447 50.7407 90.9224 50.7912C94.0301 52.6075 96.5331 54.7434 98.6665 57.2829C100.817 59.8391 102.429 62.6811 103.471 65.9941C102.11 65.2878 100.918 64.5984 99.5736 64.0939C103.874 72.8894 101.421 82.0379 96.0627 86.3432ZM63.0535 86.461C69.017 85.9397 74.0734 83.871 78.3402 79.7003C78.8106 82.9124 78.945 85.9227 77.8699 89.118C84.8077 86.7636 89.7633 82.7612 91.6447 75.4793C94.1141 77.8674 96.3147 80.2889 96.7851 83.8374C100.934 80.1544 103.135 69.3408 95.7435 60.9993C97.4402 61.7729 99.1369 62.5467 101.069 63.4212C97.7426 57.0138 92.9886 52.6749 86.2188 50.3373C87.5458 49.9673 88.6881 49.8326 89.948 49.6812C83.1446 45.5442 67.8075 47.7136 64.1118 53.297C66.2284 53.4652 67.6731 54.5415 68.4459 56.4923C68.681 57.0809 68.8826 57.1818 69.437 56.8454C70.7473 56.0718 72.0072 55.1805 73.435 54.6087C76.106 53.5324 78.7938 53.3474 81.5656 54.2219C80.7088 54.4237 79.8521 54.5753 78.9954 54.6762C78.525 54.7266 78.3066 54.9451 78.1722 55.3992C77.0299 59.1999 74.4094 60.2764 70.9825 58.376C70.3441 58.0228 69.689 57.8545 68.933 57.8377C69.0338 58.2077 69.2186 58.5105 69.2018 58.7964C69.1346 60.2595 70.1089 60.9659 71.184 61.6049C71.6208 61.8572 72.0408 62.1093 72.4775 62.3447C73.3342 62.8156 74.191 63.2529 74.9301 63.8919C76.7948 65.4896 77.6851 67.5581 77.9203 70.0471C77.1811 69.6435 76.5764 69.2567 75.9212 68.954C72.0744 67.1881 67.9923 66.3811 63.7759 66.1456C61.9952 66.0447 60.1978 66.1118 58.5011 66.7173C58.0475 66.8854 57.5268 66.9527 57.1404 67.4404C60.0634 67.474 62.7511 68.0628 65.1029 69.7277C67.4379 71.3758 68.4627 73.6292 68.0595 76.4713C67.7739 78.5735 66.9844 80.5077 65.9597 82.3408C65.1701 83.7534 64.1958 85.0484 63.0535 86.461ZM53.1928 69.2569C53.4447 68.9373 53.6127 68.7353 53.7807 68.5167C55.175 66.6164 57.0564 65.4898 59.3578 65.0189C62.516 64.363 65.6405 64.7666 68.765 65.3048C71.1672 65.7084 73.4686 66.4482 75.8708 67.39C75.3837 66.28 74.7957 65.4896 73.9894 64.8337C73.0823 64.0937 72.024 63.606 71.016 63.0511C69.3698 62.1429 68.1603 61.0668 67.7403 58.9646C66.9844 55.0966 65.9093 54.3566 62.012 54.878C57.7956 55.433 54.6038 57.636 52.9912 61.689C52.0336 64.178 52.0504 66.6838 53.1928 69.2569Z" fill="#FDEAEA"/>
<path d="M108.225 91.1704C103.857 91.4226 100.414 93.2894 98.0114 97.006C97.7762 97.376 97.6251 97.9478 96.9867 97.4433C96.5667 97.1069 96.7851 96.7874 96.9867 96.4678C99.0865 93.1044 102.06 90.9854 105.957 90.2622C109.166 89.6568 112.173 90.1781 114.81 92.2635C116.07 93.2725 116.943 94.5338 117.229 96.1651C117.296 96.5351 117.397 96.7537 117.884 96.7201C123.495 96.2492 128.686 97.7628 133.692 100.117C134.061 100.285 134.431 100.454 134.8 100.622C135.203 100.79 135.422 101.076 135.203 101.513C135.002 101.917 134.616 101.833 134.296 101.698C133.524 101.362 132.768 100.975 132.012 100.639C127.778 98.7214 123.377 97.5778 118.69 97.7964C117.867 97.8301 117.515 97.9646 117.246 98.9568C115.633 104.742 112.29 109.131 106.478 111.25C104.764 111.873 103.017 111.721 101.422 110.729C99.6913 109.653 99.1537 107.584 100.145 105.717C101.086 103.935 102.581 102.623 104.176 101.463C107.519 99.0241 111.249 97.5273 115.364 97.0564C116.087 96.9724 116.171 96.7033 115.952 96.081C115.012 93.3734 112.912 92.0617 110.291 91.4394C109.619 91.2208 108.947 91.1031 108.225 91.1704ZM104.428 110.393C104.764 110.342 105.117 110.325 105.453 110.258C107.654 109.804 109.518 108.711 111.114 107.147C113.533 104.759 115.364 102.018 116.171 98.6541C116.305 98.0655 116.187 97.9814 115.6 98.0655C112.005 98.6205 108.662 99.7809 105.638 101.833C104.025 102.926 102.53 104.153 101.438 105.801C100.279 107.567 100.918 109.4 102.883 110.09C103.353 110.275 103.874 110.393 104.428 110.393Z" fill="white"/>
<path d="M0.546111 42.1816C1.15086 42.4003 1.70521 42.6021 2.25957 42.8207C5.4681 44.0484 8.50864 45.6292 11.4652 47.395C11.7508 47.5632 12.3891 47.6809 12.0195 48.2527C11.7172 48.7404 11.314 48.7572 10.7596 48.4377C7.45033 46.5037 4.10741 44.6034 0.378126 43.5439C0.109348 43.4598 -0.125831 43.342 0.075752 42.9552C0.210141 42.6694 0.159744 42.2825 0.546111 42.1816Z" fill="#FFFEFE"/>
<path d="M134.061 11.8768C134.061 12.0954 133.893 12.1459 133.776 12.2468C130.601 14.7358 127.846 17.6284 125.41 20.8237C125.023 21.3282 124.805 20.9582 124.52 20.8237C124.116 20.6219 124.217 20.3696 124.436 20.0837C126.938 16.8884 129.693 13.9622 132.868 11.4396C133.053 11.305 133.238 11.0359 133.507 11.2714C133.725 11.4564 133.893 11.6918 134.061 11.8768Z" fill="white"/>
<path d="M107.939 43.695C111.551 44.0818 114.877 45.629 117.414 48.7402C117.649 49.0429 118.035 49.3288 117.548 49.7661C117.061 50.1865 116.842 49.7997 116.574 49.497C114.171 46.6549 111.097 45.2086 107.452 44.889C107.049 44.8554 106.696 44.7881 106.662 44.3004C106.646 43.8632 106.982 43.6614 107.939 43.695Z" fill="black"/>
<path d="M68.6345 65.3563C71.0199 65.7599 73.3213 66.4999 75.7235 67.4416C75.2532 66.3485 74.6652 65.5413 73.8589 64.8854C72.9518 64.1622 71.9102 63.6745 70.9023 63.1196C69.2561 62.2114 68.0466 61.1351 67.6434 59.0498C66.9043 55.1986 65.8124 54.4586 61.9319 54.9799C57.7323 55.5349 54.5405 57.7212 52.9447 61.7742C51.9703 64.2295 52.0039 66.7185 53.1462 69.2915C53.3814 68.972 53.5662 68.7702 53.7174 68.5516C55.1117 66.6512 56.9931 65.5413 59.2777 65.0704C62.4191 64.4313 65.5268 64.8349 68.6345 65.3563Z" fill="#FBB908"/>
<path d="M100.854 63.5061C97.5447 57.1155 92.8075 52.7934 86.0545 50.4726C87.3816 50.1026 88.5239 49.9681 89.767 49.8167C82.9972 45.6796 67.6937 47.8491 64.0148 53.4156C66.1146 53.5838 67.5761 54.6601 68.332 56.5941C68.5672 57.1827 68.7688 57.2668 69.3231 56.9473C70.6334 56.1737 71.8765 55.2824 73.3044 54.7106C75.9586 53.6343 78.6463 53.4493 81.4013 54.3238C80.5446 54.5256 79.7046 54.6769 78.8311 54.7778C78.3607 54.8283 78.1424 55.0469 78.008 55.501C76.8657 59.2849 74.2619 60.3612 70.8518 58.4608C70.2134 58.1077 69.5583 57.9395 68.8192 57.9227C68.92 58.2927 69.1047 58.5786 69.0879 58.8813C69.0207 60.3444 69.9951 61.0339 71.0702 61.673C71.4901 61.9252 71.9269 62.1775 72.3637 62.4129C73.2036 62.8838 74.0771 63.3211 74.8163 63.9433C76.6809 65.541 77.5712 67.5927 77.8064 70.0817C77.0673 69.678 76.4625 69.2912 75.8074 68.9885C71.9605 67.2395 67.8952 66.4155 63.7124 66.18C61.9317 66.0791 60.1511 66.1464 58.4544 66.7518C58.0009 66.92 57.4801 66.9873 57.0938 67.4582C60.0167 67.4918 62.6709 68.0804 65.0227 69.7453C67.3409 71.3934 68.3656 73.6301 67.9792 76.4555C67.6937 78.5408 66.9041 80.4748 65.8794 82.3079C65.0899 83.7206 64.0988 84.9987 62.9733 86.4114C68.9199 85.89 73.9427 83.8215 78.2096 79.6844C78.6799 82.8797 78.8143 85.89 77.7392 89.0685C84.6434 86.7309 89.5822 82.7284 91.4636 75.4801C93.9162 77.8681 96.1168 80.273 96.5872 83.8047C100.72 80.1385 102.92 69.3585 95.5457 61.0507C97.2256 61.858 98.9222 62.6316 100.854 63.5061Z" fill="white"/>
<path d="M103.256 66.0624C102.215 62.7494 100.602 59.924 98.4687 57.3678C96.3353 54.8284 93.8491 52.7094 90.7413 50.8931C91.4637 50.8426 91.8836 50.8258 92.3036 50.7754C92.7572 50.7249 93.1939 50.6408 93.6643 50.5736C93.6139 50.4895 93.5971 50.4222 93.5635 50.3886C93.3955 50.254 93.2107 50.1195 93.0259 50.0018C86.5753 46.0329 79.6879 45.007 72.4309 47.1933C68.5168 48.3705 64.9051 50.17 62.083 53.2644C61.8142 53.5502 61.495 53.5671 61.159 53.6175C54.4228 54.7947 50.1224 60.7145 51.1639 67.4414C51.4159 69.0895 52.0374 70.5863 53.2133 71.8644C54.2212 69.7958 55.1787 68.9886 57.2618 68.8541C60.2351 68.6691 62.9397 69.51 65.1739 71.528C66.5682 72.7893 67.0049 74.4543 66.7698 76.2874C66.3834 79.3481 64.9219 81.938 63.0573 84.3261C62.1838 85.436 61.1254 86.3778 60.0839 87.5382C66.5514 87.8745 72.1621 86.0246 77.2017 82.1398C77.7392 85.1501 76.9497 87.8577 75.589 90.6831C83.3668 89.0854 89.1623 85.3688 91.9676 77.8346C94.4706 80.0545 95.5289 82.947 95.8313 86.2937C101.173 82.0053 103.609 72.8734 99.359 64.1284C100.72 64.6665 101.912 65.3729 103.256 66.0624ZM53.7005 68.5514C53.5325 68.77 53.3645 68.9886 53.1293 69.2913C51.987 66.7351 51.9702 64.2293 52.9277 61.7739C54.5404 57.721 57.7153 55.5347 61.915 54.9797C65.7955 54.4584 66.8874 55.1983 67.6265 59.0495C68.0297 61.1349 69.2392 62.2112 70.8854 63.1193C71.8933 63.6743 72.9348 64.162 73.842 64.8852C74.6483 65.541 75.2363 66.3315 75.7066 67.4414C73.3044 66.4996 71.003 65.7597 68.6176 65.3561C65.5099 64.8179 62.4021 64.4143 59.244 65.0702C56.9762 65.541 55.0948 66.6678 53.7005 68.5514ZM96.5704 83.8552C96.1001 80.3235 93.8995 77.9018 91.4469 75.5306C89.5654 82.7789 84.6267 86.7814 77.7224 89.119C78.7976 85.9405 78.6632 82.9302 78.1928 79.7349C73.9428 83.8888 68.9032 85.9405 62.9565 86.4619C64.082 85.0492 65.0731 83.7711 65.8626 82.3584C66.8874 80.5253 67.6769 78.6082 67.9625 76.506C68.3488 73.6807 67.3409 71.4271 65.0059 69.7959C62.6541 68.1309 59.9831 67.5423 57.077 67.5087C57.4466 67.0378 57.9841 66.9537 58.4377 66.8024C60.1511 66.1969 61.915 66.1297 63.6956 66.2306C67.8785 66.466 71.9605 67.2732 75.7906 69.0391C76.429 69.3418 77.0337 69.7118 77.7896 70.1322C77.5545 67.6432 76.6641 65.5915 74.7995 63.9938C74.0603 63.3548 73.2036 62.9175 72.3469 62.4635C71.9101 62.228 71.4734 61.9758 71.0534 61.7235C69.9783 61.0844 69.0208 60.3949 69.0712 58.9318C69.088 58.6459 68.92 58.3432 68.8024 57.9732C69.5415 57.9732 70.2135 58.1582 70.835 58.5114C74.2451 60.4117 76.8657 59.3354 77.9912 55.5515C78.1256 55.0974 78.344 54.8788 78.8144 54.8284C79.6711 54.7275 80.5278 54.5761 81.3845 54.3743C78.6296 53.4998 75.9418 53.6848 73.2876 54.7611C71.8597 55.3329 70.6166 56.2242 69.3063 56.9978C68.752 57.3342 68.5504 57.2333 68.3152 56.6446C67.5425 54.7106 66.0978 53.6343 63.998 53.4662C67.6769 47.8996 82.9804 45.7302 89.7502 49.8672C88.5071 50.0186 87.3648 50.1699 86.0377 50.5231C92.7908 52.8439 97.528 57.166 100.837 63.5566C98.9054 62.6821 97.2088 61.9085 95.5289 61.1349C102.904 69.409 100.703 80.1722 96.5704 83.8552Z" fill="black"/>
<path d="M73.9556 58.04C74.4752 58.04 74.8963 57.6184 74.8963 57.0983C74.8963 56.5781 74.4752 56.1565 73.9556 56.1565C73.436 56.1565 73.0149 56.5781 73.0149 57.0983C73.0149 57.6184 73.436 58.04 73.9556 58.04Z" fill="#FFE9D8"/>
<path d="M17.2077 114.227L0.89624 85.8892L7.2797 76.3874L9.6819 72.0821L12.672 65.927L14.7887 60.9322L17.2245 56.7951L20.8362 51.8676L23.9945 47.7978L26.5309 44.9557L29.1011 42.7694C29.1011 42.7694 31.688 42.3994 31.6712 45.5947C31.6712 45.5947 37.6347 38.5146 39.2642 41.8781C39.2642 41.8781 40.0369 44.6866 38.3235 47.226L39.4322 46.8729C39.4322 46.8729 43.9342 41.5754 45.6141 44.1316C47.2771 46.6879 44.9925 49.6982 44.9925 49.6982C44.9925 49.6982 49.2091 47.8651 49.4275 50.8081C49.6627 53.7512 47.8651 56.1561 47.8651 56.1561L41.784 66.7174L40.7425 69.5595C40.7425 69.5595 44.4046 67.7264 46.3028 68.4664C48.201 69.2064 47.8819 71.0899 47.3107 71.7794C46.7396 72.4689 43.6656 76.5892 42.1369 77.3292C40.6082 78.0691 35.1653 82.0212 34.9806 82.1389C34.7958 82.2567 29.773 86.831 29.773 86.831L25.4054 93.2889L22.936 98.435L20.7186 103.917L17.2077 114.227Z" fill="#FFE9D8"/>
<path d="M32.1247 44.5701C32.9479 43.561 33.6366 42.6361 34.5269 41.8961C34.9301 41.5598 35.3501 41.2234 35.8036 40.9543C36.7779 40.3657 37.8364 40.0294 38.8611 40.7862C39.9026 41.5766 40.2048 42.7202 40.0201 43.9647C39.9361 44.6037 39.7009 45.226 39.4657 46.1005C39.9025 45.68 40.2048 45.3941 40.4904 45.1251C41.2296 44.4524 42.0191 43.8469 42.9262 43.4097C43.9005 42.9388 44.8916 42.7538 45.8156 43.5106C46.7227 44.2674 46.9411 45.2764 46.7563 46.3864C46.6051 47.2777 46.2691 48.1186 45.8828 48.9258C46.0675 49.094 46.1851 48.9594 46.3195 48.909C47.2602 48.4717 48.201 48.4549 49.0577 49.1108C49.9816 49.8171 50.3008 50.8093 50.1328 51.9361C49.948 53.147 49.4777 54.2737 48.9401 55.3669C46.7395 59.8403 44.1693 64.1119 41.5655 68.5181C42.4223 68.2322 43.1278 67.8454 43.9005 67.694C44.6901 67.5426 45.4292 67.5258 46.2019 67.7276C48.1842 68.2658 48.9401 69.8298 47.9994 71.6797C46.7899 74.0342 44.9084 75.8168 42.9094 77.4817C40.9776 79.0794 38.8442 80.3743 36.7443 81.7029C31.6544 84.915 28.1939 89.5398 25.4893 94.8036C22.4655 100.707 19.9626 106.828 18.2491 113.252C18.1987 113.437 18.1819 113.622 18.1147 113.79C17.9467 114.194 17.6444 114.379 17.2244 114.245C16.7708 114.11 16.8212 113.757 16.922 113.404C17.5268 111.419 18.0643 109.401 18.7363 107.434C20.5673 102.102 22.8687 96.9731 25.5733 92.0288C28.6138 86.4958 32.9479 82.2915 38.4242 79.1803C41.4815 77.4481 44.1693 75.2114 46.2523 72.3356C46.4875 72.0161 46.7059 71.6629 46.8907 71.3097C47.5794 69.9475 47.0587 69.0058 45.5132 68.8544C44.3877 68.7367 43.3462 68.9889 42.3719 69.5439C41.5991 69.998 40.8264 70.4857 40.0872 71.007C39.1465 71.6797 38.4074 72.0329 37.0803 71.4611C33.8382 70.0821 30.7306 70.7211 28.026 73.0083C27.5557 73.4119 27.1188 73.866 26.6988 74.3369C26.43 74.6228 26.2452 74.8078 25.8589 74.4882C25.4893 74.1687 25.5229 73.9333 25.7749 73.5465C27.7907 70.6707 32.0239 68.9889 35.5348 69.7289C36.2572 69.8803 36.9965 70.0484 37.6852 70.3175C38.5588 70.6539 39.0289 70.3848 39.4993 69.628C41.6999 66.0459 43.8501 62.4302 45.8492 58.7303C46.6387 57.2504 47.4114 55.7537 48.1674 54.2569C48.5537 53.5001 48.8225 52.7097 48.9401 51.8688C49.0241 51.213 48.9401 50.6075 48.3689 50.1871C47.7642 49.7498 47.1091 49.8339 46.5211 50.1703C45.2108 50.9102 44.2535 52.0202 43.3967 53.2142C41.4145 55.9386 39.5497 58.7471 37.7522 61.5893C37.5675 61.892 37.5003 62.4806 36.8115 62.0602C36.1564 61.6734 36.4756 61.3202 36.7275 60.9502C38.9953 57.5195 41.2967 54.1055 43.531 50.658C44.4045 49.3294 45.1772 47.9336 45.5636 46.3695C45.7316 45.68 45.698 45.0242 45.1436 44.5533C44.6061 44.0824 43.9677 44.2842 43.3798 44.5533C42.4894 44.9569 41.7337 45.5623 41.0449 46.235C37.4668 49.7162 34.6613 53.8197 32.0743 58.0576C31.9231 58.3099 31.8727 58.7303 31.5032 58.7303C31.2512 58.7303 30.9488 58.579 30.7472 58.4108C30.4449 58.1754 30.781 57.9567 30.8818 57.7717C32.2425 55.3837 33.8214 53.1469 35.3165 50.843C36.4756 49.0435 37.6515 47.2272 38.4242 45.2091C38.6594 44.5869 38.8106 43.9647 38.7938 43.292C38.7602 41.8793 37.7522 41.2571 36.4924 41.9297C35.4004 42.5015 34.5607 43.4097 33.8216 44.3683C31.3186 47.614 29.3698 51.213 27.1523 54.6437C26.9004 55.0305 26.598 55.4005 26.4132 55.8377C26.1108 56.5104 25.6741 56.2245 25.2877 56.0395C24.6662 55.7368 25.1869 55.4341 25.3549 55.165C26.85 52.7602 28.3786 50.3721 29.8401 47.9336C30.3777 47.0254 30.7136 46.0164 30.6968 44.9064C30.68 44.3178 30.6465 43.7292 30.0753 43.4433C29.4874 43.1406 29.0004 43.4938 28.53 43.8301C27.9588 44.2674 27.4379 44.7551 26.9676 45.2932C23.1879 49.6994 19.509 54.1896 16.3845 59.0835C14.8726 61.4547 13.8647 64.0614 12.8232 66.6681C10.7569 71.8815 7.73319 76.5568 4.60866 81.1816C3.66794 82.5774 2.77761 84.0069 1.88729 85.4364C1.63531 85.84 1.36653 86.2268 0.862577 85.8904C0.392217 85.5877 0.694591 85.2009 0.896174 84.8477C2.22326 82.5438 3.70154 80.3575 5.19661 78.1712C7.81719 74.3032 10.169 70.2671 11.7985 65.8777C13.7303 60.6811 16.7036 56.1068 20.0969 51.7847C21.844 49.548 23.6246 47.345 25.4725 45.1923C26.2284 44.3178 27.018 43.477 27.9755 42.8211C29.7393 41.5934 30.9824 41.9466 31.7888 43.9142C31.9231 44.0656 32.0071 44.2674 32.1247 44.5701Z" fill="black"/>
<path d="M143.267 50.2587L140.982 87.2234L123.915 69.0942L113.079 59.8447L104.546 50.1578L96.5665 42.4723L93.8619 38.722L93.3748 36.7376L94.7858 35.7622L98.2127 36.1658L98.0616 35.0726L94.4163 31.0196L94.3659 28.4129L96.3481 27.4712L100.565 29.3379L101.22 28.5139L99.523 26.2771L98.3135 23.1996L99.7246 21.4001L101.757 21.0638L105.403 23.6704L105.755 21.686L106.696 19.9202H108.477L112.105 21.6355L118.321 27.9421L125.695 36.0144L130.332 40.5551L132.616 42.7918L136.06 45.449L141.267 48.9974L143.267 50.2587Z" fill="#FFE9D8"/>
<path d="M97.5912 35.4764C96.3481 34.2319 95.3066 33.1892 94.4835 31.9783C94.1307 31.457 93.8115 30.9188 93.6603 30.3134C93.1732 28.3122 94.5843 26.7481 96.6337 27.0172C97.8768 27.1854 98.9519 27.774 100.229 28.514C99.3215 27.1181 98.4479 25.9914 98.112 24.5787C97.7928 23.2333 97.9944 21.9888 99.0863 21.0975C100.161 20.2062 101.421 20.3071 102.597 20.9461C103.437 21.4002 104.21 21.9888 104.999 22.527C105.184 22.4092 105.083 22.2411 105.1 22.1065C105.235 19.8026 106.931 18.659 109.132 19.3653C111.181 20.038 112.727 21.4507 114.255 22.8801C118.321 26.7145 122.016 30.9188 125.796 35.0223C130.768 40.4039 136.211 45.2473 142.511 49.048C142.662 49.1489 142.83 49.2498 142.981 49.3507C143.283 49.5693 143.519 49.8216 143.283 50.2084C143.031 50.612 142.679 50.5784 142.309 50.3261C140.36 48.9975 138.328 47.7699 136.43 46.3572C130.768 42.136 125.93 37.0572 121.227 31.827C118.371 28.6485 115.465 25.4868 112.24 22.6783C111.416 21.9552 110.543 21.3161 109.552 20.8116C108.275 20.1557 107.368 20.1389 106.78 20.7611C106.209 21.3666 106.242 22.4765 106.898 23.6369C107.469 24.646 108.174 25.5541 108.897 26.4454C110.358 28.2281 111.82 30.0107 113.281 31.7934C113.567 32.1465 113.852 32.5165 113.365 32.9033C112.844 33.3069 112.525 32.9369 112.223 32.5333C109.989 29.6407 107.754 26.7481 105.05 24.276C104.092 23.3847 103.101 22.527 101.925 21.9047C101.253 21.5516 100.548 21.417 99.8926 21.8879C99.2375 22.3588 99.1367 23.0651 99.2207 23.8219C99.3887 25.3018 100.279 26.4118 101.153 27.4881C103.152 29.9266 105.218 32.3147 107.25 34.7196C107.435 34.9382 107.586 35.1737 107.771 35.3755C108.141 35.8295 108.09 36.25 107.62 36.5863C107.099 36.9563 106.931 36.4518 106.679 36.1659C104.361 33.6264 102.026 31.1038 99.1199 29.2203C98.3135 28.699 97.4568 28.2112 96.4657 28.1608C95.021 28.0767 94.3827 29.0017 94.9706 30.3134C95.441 31.3897 96.2137 32.2474 97.0033 33.0883C99.0527 35.2746 101.27 37.3095 103.437 39.378C103.588 39.5294 103.807 39.6639 103.891 39.8489C104.059 40.2189 104.159 40.6393 103.773 40.9588C103.336 41.3288 103.101 40.9588 102.849 40.6898C101.287 38.9407 99.3887 37.6458 97.272 36.6704C96.6841 36.4013 96.0625 36.1995 95.3738 36.2331C94.2483 36.3004 93.8115 36.9227 94.1979 37.9653C94.6011 39.0417 95.3066 39.9162 96.0457 40.757C97.6248 42.6069 99.3383 44.3391 101.186 45.9368C103.756 48.1399 106.041 50.5952 108.04 53.3533C110.577 56.8513 113.667 59.8111 117.128 62.3506C122.352 66.1681 126.854 70.7088 131.054 75.6195C134.061 79.1343 137.219 82.5146 140.461 85.794C140.596 85.9285 140.73 86.0631 140.864 86.1976C141.133 86.4835 141.402 86.7526 140.999 87.1394C140.646 87.4757 140.327 87.3748 140.024 87.0553C139.067 86.0631 138.076 85.1213 137.152 84.0954C133.759 80.3115 130.248 76.6117 126.871 72.811C123.713 69.2457 120.185 66.084 116.322 63.3092C112.324 60.4334 109.014 56.9017 106.158 52.916C104.747 50.9484 103 49.3171 101.203 47.6858C98.6831 45.3986 96.1969 43.0778 94.1307 40.3534C93.5931 39.6303 93.106 38.8735 92.9044 37.9653C92.5852 36.4518 93.4252 35.3082 94.937 35.0896C95.7434 35.0559 96.5329 35.2409 97.5912 35.4764Z" fill="black"/>
</svg>
