<svg width="38" height="36" viewBox="0 0 38 36" fill="none" xmlns="http://www.w3.org/2000/svg">
<path d="M38 18.11C38 13.3069 35.9991 8.70056 32.4376 5.30429C28.8761 1.90801 24.0456 7.73138e-06 19.0088 7.73138e-06C14.2266 -0.00420357 9.61887 1.71215 6.10587 4.80623C2.59287 7.90031 0.433274 12.1443 0.058458 16.6905C-0.316358 21.2367 1.1212 25.7504 4.08399 29.33C7.04677 32.9096 11.3167 35.2915 16.0407 36V23.3437H11.2224V18.11H16.0434V14.1206C16.0434 9.58276 18.8786 7.07324 23.2167 7.07324C25.2949 7.07324 27.468 7.42768 27.468 7.42768V11.8853H25.0724C22.7121 11.8853 21.9796 13.2824 21.9796 14.713V18.11H27.2455L26.4045 23.3437H21.9768V36C26.4439 35.3255 30.5119 33.153 33.4491 29.8736C36.3864 26.5941 38.0001 22.4228 38 18.11Z" fill="#1877F2"/>
</svg>
