<svg width="34" height="34" viewBox="0 0 34 34" fill="none" xmlns="http://www.w3.org/2000/svg">
<path d="M26.7143 0H7.28571C3.26193 0 0 3.26193 0 7.28571V26.7143C0 30.7381 3.26193 34 7.28571 34H26.7143C30.7381 34 34 30.7381 34 26.7143V7.28571C34 3.26193 30.7381 0 26.7143 0Z" fill="url(#paint0_radial_368_121)"/>
<path d="M26.7143 0H7.28571C3.26193 0 0 3.26193 0 7.28571V26.7143C0 30.7381 3.26193 34 7.28571 34H26.7143C30.7381 34 34 30.7381 34 26.7143V7.28571C34 3.26193 30.7381 0 26.7143 0Z" fill="url(#paint1_radial_368_121)"/>
<path d="M26.7143 0H7.28571C3.26193 0 0 3.26193 0 7.28571V26.7143C0 30.7381 3.26193 34 7.28571 34H26.7143C30.7381 34 34 30.7381 34 26.7143V7.28571C34 3.26193 30.7381 0 26.7143 0Z" fill="url(#paint2_radial_368_121)"/>
<path d="M25.5003 10.3214C25.5003 11.3273 24.6848 12.1429 23.6789 12.1429C22.6729 12.1429 21.8574 11.3273 21.8574 10.3214C21.8574 9.31548 22.6729 8.5 23.6789 8.5C24.6848 8.5 25.5003 9.31548 25.5003 10.3214Z" fill="white"/>
<path fill-rule="evenodd" clip-rule="evenodd" d="M17.0001 23.0721C20.3533 23.0721 23.0716 20.3538 23.0716 17.0006C23.0716 13.6475 20.3533 10.9292 17.0001 10.9292C13.647 10.9292 10.9287 13.6475 10.9287 17.0006C10.9287 20.3538 13.647 23.0721 17.0001 23.0721ZM17.0001 20.6435C19.0121 20.6435 20.643 19.0126 20.643 17.0006C20.643 14.9887 19.0121 13.3578 17.0001 13.3578C14.9882 13.3578 13.3573 14.9887 13.3573 17.0006C13.3573 19.0126 14.9882 20.6435 17.0001 20.6435Z" fill="white"/>
<path fill-rule="evenodd" clip-rule="evenodd" d="M4.85742 16.5136C4.85742 12.4332 4.85742 10.393 5.65152 8.83452C6.35002 7.46361 7.46459 6.34905 8.8355 5.65054C10.394 4.85645 12.4342 4.85645 16.5146 4.85645H17.486C21.5664 4.85645 23.6066 4.85645 25.165 5.65054C26.5359 6.34905 27.6505 7.46361 28.349 8.83452C29.1431 10.393 29.1431 12.4332 29.1431 16.5136V17.485C29.1431 21.5654 29.1431 23.6056 28.349 25.164C27.6505 26.535 26.5359 27.6496 25.165 28.348C23.6066 29.1422 21.5664 29.1422 17.486 29.1422H16.5146C12.4342 29.1422 10.394 29.1422 8.8355 28.348C7.46459 27.6496 6.35002 26.535 5.65152 25.164C4.85742 23.6056 4.85742 21.5654 4.85742 17.485V16.5136ZM16.5146 7.28502H17.486C19.5663 7.28502 20.9803 7.28691 22.0734 7.37621C23.1383 7.4632 23.6827 7.62088 24.0626 7.81441C24.9764 8.28009 25.7195 9.02313 26.1851 9.93702C26.3787 10.3168 26.5364 10.8613 26.6234 11.9261C26.7126 13.0192 26.7146 14.4333 26.7146 16.5136V17.485C26.7146 19.5653 26.7126 20.9794 26.6234 22.0725C26.5364 23.1373 26.3787 23.6818 26.1851 24.0616C25.7195 24.9755 24.9764 25.7185 24.0626 26.1842C23.6827 26.3777 23.1383 26.5355 22.0734 26.6224C20.9803 26.7117 19.5663 26.7136 17.486 26.7136H16.5146C14.4343 26.7136 13.0202 26.7117 11.9271 26.6224C10.8623 26.5355 10.3178 26.3777 9.93799 26.1842C9.02411 25.7185 8.28107 24.9755 7.81539 24.0616C7.62185 23.6818 7.46418 23.1373 7.37719 22.0725C7.28789 20.9794 7.28599 19.5653 7.28599 17.485V16.5136C7.28599 14.4333 7.28789 13.0192 7.37719 11.9261C7.46418 10.8613 7.62185 10.3168 7.81539 9.93702C8.28107 9.02313 9.02411 8.28009 9.93799 7.81441C10.3178 7.62088 10.8623 7.4632 11.9271 7.37621C13.0202 7.28691 14.4343 7.28502 16.5146 7.28502Z" fill="white"/>
<defs>
<radialGradient id="paint0_radial_368_121" cx="0" cy="0" r="1" gradientUnits="userSpaceOnUse" gradientTransform="translate(12.1429 25.5) rotate(-55.3758) scale(30.9881)">
<stop stop-color="#B13589"/>
<stop offset="0.79309" stop-color="#C62F94"/>
<stop offset="1" stop-color="#8A3AC8"/>
</radialGradient>
<radialGradient id="paint1_radial_368_121" cx="0" cy="0" r="1" gradientUnits="userSpaceOnUse" gradientTransform="translate(10.9286 35.2143) rotate(-65.1363) scale(27.4358)">
<stop stop-color="#E0E8B7"/>
<stop offset="0.444662" stop-color="#FB8A2E"/>
<stop offset="0.71474" stop-color="#E2425C"/>
<stop offset="1" stop-color="#E2425C" stop-opacity="0"/>
</radialGradient>
<radialGradient id="paint2_radial_368_121" cx="0" cy="0" r="1" gradientUnits="userSpaceOnUse" gradientTransform="translate(-1.82143 1.21429) rotate(-8.1301) scale(47.2247 10.1009)">
<stop offset="0.156701" stop-color="#406ADC"/>
<stop offset="0.467799" stop-color="#6A45BE"/>
<stop offset="1" stop-color="#6A45BE" stop-opacity="0"/>
</radialGradient>
</defs>
</svg>
