<svg width="38" height="38" viewBox="0 0 38 38" fill="none" xmlns="http://www.w3.org/2000/svg">
<path fill-rule="evenodd" clip-rule="evenodd" d="M29.6476 16.9574C23.8453 13.5118 14.2751 13.1948 8.73594 14.8759C7.8465 15.1459 6.90591 14.6437 6.63638 13.7543C6.36684 12.8643 6.86855 11.9242 7.75878 11.6539C14.1168 9.72397 24.6865 10.0966 31.366 14.0617C32.1661 14.5366 32.4288 15.57 31.9544 16.3685C31.4797 17.1686 30.4458 17.4324 29.6476 16.9574ZM29.4575 22.0611C29.0507 22.7215 28.187 22.9285 27.5273 22.523C22.69 19.5497 15.314 18.6883 9.59093 20.4256C8.84885 20.6498 8.06489 20.2313 7.83961 19.4906C7.61593 18.7485 8.03468 17.9661 8.77543 17.7403C15.3129 15.7566 23.44 16.7173 28.9958 20.1317C29.6555 20.538 29.863 21.402 29.4575 22.0611ZM27.2551 26.9623C26.9315 27.4926 26.2409 27.6588 25.7124 27.3357C21.4857 24.7522 16.1652 24.1689 9.89969 25.6C9.29595 25.7384 8.69407 25.3599 8.55652 24.7564C8.41817 24.1527 8.79504 23.5508 9.40037 23.413C16.2569 21.8456 22.1385 22.5201 26.8828 25.4195C27.4118 25.7423 27.5785 26.4335 27.2551 26.9623ZM19 1C9.05901 1 1 9.05875 1 18.9997C1 28.9418 9.05901 37 19 37C28.9413 37 37 28.9418 37 18.9997C37 9.05875 28.9413 1 19 1Z" fill="#1ED760"/>
</svg>
