<svg width="36" height="36" viewBox="0 0 36 36" fill="none" xmlns="http://www.w3.org/2000/svg">
<path d="M26.2179 16.6853C26.0628 16.611 25.9053 16.5394 25.7458 16.471C25.4679 11.3509 22.6702 8.41969 17.9725 8.38969C17.9513 8.38956 17.9301 8.38956 17.9088 8.38956C15.099 8.38956 12.7621 9.58892 11.3238 11.7714L13.9074 13.5437C14.9819 11.9134 16.6682 11.5659 17.91 11.5659C17.9244 11.5659 17.9388 11.5659 17.953 11.566C19.4998 11.5759 20.6669 12.0256 21.4224 12.9026C21.9721 13.5411 22.3398 14.4234 22.5219 15.537C21.1505 15.3039 19.6674 15.2322 18.0819 15.3231C13.6156 15.5804 10.7443 18.1852 10.9371 21.8048C11.035 23.6408 11.9496 25.2203 13.5125 26.2521C14.8339 27.1243 16.5357 27.5509 18.3045 27.4543C20.6403 27.3263 22.4727 26.4351 23.7511 24.8055C24.722 23.568 25.3361 21.9643 25.6072 19.9436C26.7204 20.6154 27.5454 21.4995 28.001 22.5623C28.7757 24.3688 28.8209 27.3375 26.3986 29.7577C24.2763 31.878 21.7252 32.7952 17.8697 32.8236C13.593 32.7919 10.3585 31.4203 8.25558 28.7469C6.28634 26.2436 5.26863 22.6279 5.23066 18C5.26863 13.3721 6.28634 9.7563 8.25558 7.25301C10.3585 4.57967 13.5929 3.20813 17.8697 3.17634C22.1774 3.20837 25.4683 4.58651 27.6517 7.27275C28.7223 8.59005 29.5295 10.2467 30.0616 12.1782L33.0892 11.3704C32.4442 8.99291 31.4292 6.94419 30.0481 5.24513C27.2489 1.80125 23.1551 0.0365903 17.8802 0H17.8591C12.595 0.0364631 8.54696 1.80784 5.82749 5.26487C3.40754 8.3412 2.15926 12.6217 2.11732 17.9873L2.11719 18L2.11732 18.0127C2.15926 23.3783 3.40754 27.6589 5.82749 30.7352C8.54696 34.1921 12.595 35.9636 17.8591 36H17.8802C22.5603 35.9676 25.8592 34.7423 28.5768 32.0271C32.1324 28.4749 32.0253 24.0223 30.8534 21.2889C30.0127 19.3288 28.4097 17.7368 26.2179 16.6853ZM18.1373 24.2826C16.1798 24.3928 14.1461 23.5142 14.0459 21.6322C13.9715 20.2369 15.0389 18.6799 18.2574 18.4944C18.626 18.4731 18.9877 18.4627 19.343 18.4627C20.5121 18.4627 21.6057 18.5763 22.6001 18.7937C22.2292 23.4253 20.0538 24.1774 18.1373 24.2826Z" fill="black"/>
</svg>
