<svg width="27" height="30" viewBox="0 0 27 30" fill="none" xmlns="http://www.w3.org/2000/svg">
<path d="M14.1806 0.0250118C15.8768 9.50392e-08 17.5606 0.0130061 19.2433 0C19.2993 2.03195 20.1531 3.8608 21.5115 5.21543L21.5094 5.21343C22.9714 6.48503 24.8738 7.30941 26.971 7.44948L27 7.45148V12.4898C25.0189 12.4418 23.1559 12.0006 21.4762 11.2422L21.5612 11.2763C20.7489 10.8991 20.0619 10.5119 19.4091 10.0797L19.463 10.1137C19.4506 13.7644 19.4754 17.4151 19.4371 21.0528C19.3304 22.9067 18.6921 24.5975 17.6684 26.0091L17.6891 25.9781C15.9773 28.3452 13.2046 29.899 10.0516 29.991H10.0371C9.9096 29.997 9.75936 30 9.60808 30C7.81553 30 6.14006 29.5178 4.71223 28.6804L4.75368 28.7034C2.15499 27.1937 0.36244 24.6105 0.030869 21.6061L0.0267244 21.5651C0.000820433 20.9398 -0.0116136 20.3145 0.0142904 19.7022C0.522008 14.921 4.67079 11.2222 9.71377 11.2222C10.2805 11.2222 10.8359 11.2693 11.3758 11.3583L11.3177 11.3503C11.3436 13.2002 11.2659 15.051 11.2659 16.9009C10.8276 16.7478 10.322 16.6588 9.79459 16.6588C7.85905 16.6588 6.21259 17.8533 5.60333 19.5211L5.594 19.5511C5.45619 19.9783 5.37641 20.4696 5.37641 20.9778C5.37641 21.1839 5.38988 21.388 5.41475 21.5881L5.41268 21.5641C5.75668 23.611 7.5741 25.1557 9.76558 25.1557C9.82878 25.1557 9.89095 25.1547 9.95312 25.1517H9.9438C11.4597 25.1077 12.7756 24.3203 13.5196 23.1568L13.5299 23.1388C13.8066 22.7666 13.9962 22.3164 14.0594 21.8272L14.0605 21.8132C14.19 19.5751 14.1382 17.3501 14.1506 15.1121C14.163 10.0737 14.1382 5.04736 14.1765 0.0220103L14.1806 0.0250118Z" fill="#060606"/>
</svg>
