<svg width="36" height="26" viewBox="0 0 36 26" fill="none" xmlns="http://www.w3.org/2000/svg">
<path fill-rule="evenodd" clip-rule="evenodd" d="M14.283 17.7947L14.2819 7.40828L24.0086 12.6194L14.283 17.7947ZM35.64 5.60848C35.64 5.60848 35.2879 3.06128 34.209 1.93958C32.8399 0.466708 31.3054 0.459763 30.6022 0.374278C25.5645 -5.42402e-06 18.0079 0 18.0079 0H17.9921C17.9921 0 10.4355 -5.42402e-06 5.39775 0.374278C4.6935 0.459763 3.16013 0.466708 1.78988 1.93958C0.711004 3.06128 0.359997 5.60848 0.359997 5.60848C0.359997 5.60848 0 8.60044 0 11.5912V14.3961C0 17.388 0.359997 20.3788 0.359997 20.3788C0.359997 20.3788 0.711004 22.926 1.78988 24.0477C3.16013 25.5206 4.95899 25.4744 5.75999 25.628C8.63999 25.9122 18 26 18 26C18 26 25.5645 25.9885 30.6022 25.6142C31.3054 25.5275 32.8399 25.5206 34.209 24.0477C35.2879 22.926 35.64 20.3788 35.64 20.3788C35.64 20.3788 36 17.388 36 14.3961V11.5912C36 8.60044 35.64 5.60848 35.64 5.60848Z" fill="#CE1312"/>
</svg>
